<svg  xmlns="http://www.w3.org/2000/svg" xmlns:xlink="http://www.w3.org/1999/xlink" x="0px" y="0px" viewBox="0 0 170 107" style="enable-background:new 0 0 170 107;" xml:space="preserve">
  <defs>
    <path id="mask2-a" d="M9.68385811,64.560706 C4.35751744,64.560706 0.0001,60.2032476 0.0001,54.876857 L0.0001,9.68556141 C0.0001,4.35917073 4.35751744,0.0008 9.68385811,0.0008 C15.0101988,0.0008 19.3676162,4.35917073 19.3676162,9.68556141 L19.3676162,54.876857 C19.3676162,60.2032476 15.0101988,64.560706 9.68385811,64.560706 Z M100.065601,106.910804 C94.7392599,106.910804 90.3827548,102.554258 90.3827548,97.227867 L90.3827548,52.0356591 C90.3827548,46.7092684 94.7392599,42.3508977 100.065601,42.3508977 C105.391941,42.3508977 109.749359,46.7092684 109.749359,52.0356591 L109.749359,97.227867 C109.749359,102.554258 105.391941,106.910804 100.065601,106.910804 Z M69.9386572,64.560706 C64.6123165,64.560706 60.2548991,60.2032476 60.2548991,54.876857 L60.2548991,29.0532595 C60.2548991,23.7268688 64.6123165,19.3684981 69.9386572,19.3684981 C75.2649978,19.3684981 79.6224153,23.7268688 79.6224153,29.0532595 L79.6224153,54.876857 C79.6224153,60.2032476 75.2649978,64.560706 69.9386572,64.560706 Z M49.4948333,9.68464905 C49.4948333,15.0329365 45.1593124,19.3684981 39.8110752,19.3684981 C34.4628379,19.3684981 30.1273171,15.0329365 30.1273171,9.68464905 C30.1273171,4.33636158 34.4628379,0.0008 39.8110752,0.0008 C45.1593124,0.0008 49.4948333,4.33636158 49.4948333,9.68464905 Z M139.876941,52.0356591 C139.876941,57.3839465 135.54142,61.7195081 130.194095,61.7195081 C124.844945,61.7195081 120.508512,57.3839465 120.508512,52.0356591 C120.508512,46.6873716 124.844945,42.35181 130.194095,42.35181 C135.54142,42.35181 139.876941,46.6873716 139.876941,52.0356591 Z M170.00434,9.68464905 C170.00434,15.0329365 165.668819,19.3684981 160.320582,19.3684981 C154.972345,19.3684981 150.635912,15.0329365 150.635912,9.68464905 C150.635912,4.33636158 154.972345,0.0008 160.320582,0.0008 C165.668819,0.0008 170.00434,4.33636158 170.00434,9.68464905 Z"/>
  </defs>
  <g fill="none" fill-rule="nonzero">
    <use fill="#fff" fill-rule="nonzero" xlink:href="#mask2-a"/>
  </g>
</svg>
