<svg xmlns="http://www.w3.org/2000/svg" width="605" height="100" viewBox="0 0 605 100">
  <g fill="none" fill-rule="nonzero">
    <path fill="#fff" fill-rule="nonzero" d="M9.62373007 60.0105926C4.67031238 60.0105926.616787161 55.9601627.616787161 51.0091578L.616787161 9.00205119C.616787161 4.05104632 4.67031238 0 9.62373007 0 14.5777645 0 18.6312898 4.05104632 18.6312898 9.00205119L18.6312898 51.0091578C18.6312898 55.9601627 14.5777645 60.0105926 9.62373007 60.0105926M93.5074007 99.4608306C88.5533663 99.4608306 84.4998411 95.4104007 84.4998411 90.4587794L84.4998411 48.4516728C84.4998411 43.5006679 88.5533663 39.450238 93.5074007 39.450238 98.4608184 39.450238 102.514344 43.5006679 102.514344 48.4516728L102.514344 90.4587794C102.514344 95.4104007 98.4608184 99.4608306 93.5074007 99.4608306M65.7519785 59.8829957C60.797944 59.8829957 56.7444188 55.8325658 56.7444188 50.8815609L56.7444188 26.8773239C56.7444188 21.926319 60.797944 17.8758891 65.7519785 17.8758891 70.7053962 17.8758891 74.7595382 21.926319 74.7595382 26.8773239L74.7595382 50.8815609C74.7595382 55.8325658 70.7053962 59.8829957 65.7519785 59.8829957M46.386712 9.00205119C46.386712 13.9733976 42.3541576 18.003486 37.3791523 18.003486 32.4047639 18.003486 28.3722094 13.9733976 28.3722094 9.00205119 28.3722094 4.03070479 32.4047639 0 37.3791523 0 42.3541576 0 46.386712 4.03070479 46.386712 9.00205119M130.269149 48.4516728C130.269149 53.4230192 126.236595 57.453724 121.261589 57.453724 116.287818 57.453724 112.255263 53.4230192 112.255263 48.4516728 112.255263 43.4803264 116.287818 39.450238 121.261589 39.450238 126.236595 39.450238 130.269149 43.4803264 130.269149 48.4516728M158.641975 9.00205119C158.641975 13.9733976 154.609421 18.003486 149.634416 18.003486 144.660027 18.003486 140.627473 13.9733976 140.627473 9.00205119 140.627473 4.03070479 144.660027 0 149.634416 0 154.609421 0 158.641975 4.03070479 158.641975 9.00205119"/>
    <path fill="#fff" d="M210 3.75338702C210 2.34000638 211.130296 1.0679638 212.684453 1.0679638L225.682855 1.0679638C227.095724 1.0679638 228.367307 2.34000638 228.367307 3.75338702L228.367307 83.0394323 267.463872 83.0394323C269.019564 83.0394323 270.148324 84.3114749 270.148324 85.7233192L270.148324 97.3130405C270.148324 98.7264211 269.019564 99.9984637 267.463872 99.9984637L212.684453 99.9984637C211.130296 99.9984637 210 98.7264211 210 97.3130405L210 3.75338702zM302.143682 3.75338702C302.143682 2.34000638 303.415265 1.0679638 304.828135 1.0679638L317.967824 1.0679638C319.380693 1.0679638 320.652276 2.34000638 320.652276 3.75338702L320.652276 97.3130405C320.652276 98.7264211 319.380693 99.9984637 317.967824 99.9984637L304.828135 99.9984637C303.415265 99.9984637 302.143682 98.7264211 302.143682 97.3130405L302.143682 3.75338702zM487.966774 3.75338702C487.966774 2.34000638 489.09707 1.0679638 490.651226 1.0679638L523.852131 1.0679638C541.230429 1.0679638 555.500414 15.2017702 555.500414 32.3021397 555.500414 49.8280597 541.230429 64.1016679 523.993418 64.1016679L506.334081 64.1016679 506.334081 97.3145768C506.334081 98.7279574 505.062498 100 503.649629 100L490.651226 100C489.09707 100 487.966774 98.7279574 487.966774 97.3145768L487.966774 3.75338702zM522.721835 46.8599604C530.633906 46.8599604 537.274394 40.4982112 537.274394 32.1608017 537.274394 24.3872081 530.633906 18.4525457 522.721835 18.4525457L506.334081 18.4525457 506.334081 46.8599604 522.721835 46.8599604zM586.253368 3.75338702C586.253368 2.34000638 587.524951 1.0679638 588.937821 1.0679638L602.07751 1.0679638C603.490379 1.0679638 604.761962 2.34000638 604.761962 3.75338702L604.761962 97.3130405C604.761962 98.7264211 603.490379 99.9984637 602.07751 99.9984637L588.937821 99.9984637C587.524951 99.9984637 586.253368 98.7264211 586.253368 97.3130405L586.253368 3.75338702zM448.106953 1.0679638L437.482786 1.0679638 435.222195 1.0679638 435.196087 1.0679638C435.179194 1.0679638 435.162301 1.0771815 435.146944 1.07871779 434.056577 1.10329832 433.233427 1.65482403 432.821852 2.48134445L403.342016 67.6520187 373.860645 2.48134445C373.447534 1.65482403 372.627456 1.1048346 371.537089 1.07871779 371.520196 1.0771815 371.503303 1.0679638 371.48641 1.0679638L371.458767 1.0679638 369.198175 1.0679638 358.575544 1.0679638C357.16421 1.0679638 355.894163 2.3384701 355.894163 3.75031446L355.894163 97.369883C355.894163 98.7801911 357.16421 100.050697 358.575544 99.8755611L358.961012 99.8755611 363.641911 99.8755611 371.69834 99.8755611C373.108139 100.050697 374.378186 98.7801911 374.378186 97.369883L374.378186 44.1914363 374.803582 44.1914363 399.809842 98.2471007C400.233703 99.0951291 400.940138 99.8018195 402.210185 99.8018195L403.342016 99.8018195 404.470776 99.8018195C405.742359 99.8018195 406.448794 99.0951291 406.871119 98.2471007L431.878915 44.1914363 432.302776 44.1914363 432.304311 44.1929725 432.304311 97.369883C432.304311 98.7801911 433.572823 100.050697 434.984157 99.8755611L443.03905 99.8755611 447.721485 99.8755611 448.106953 99.8755611C449.518287 100.050697 450.788334 98.7801911 450.788334 97.369883L450.788334 3.75031446C450.788334 2.3384701 449.518287 1.0679638 448.106953 1.0679638"/>
  </g>
</svg>
