<svg  xmlns="http://www.w3.org/2000/svg" xmlns:xlink="http://www.w3.org/1999/xlink" x="0px" y="0px"
	 viewBox="0 0 168 53" style="enable-background:new 0 0 168 53;" xml:space="preserve">
  <defs>
    <path id="mask-a" d="M4.72952937,33.2194437 C2.12253061,33.2139203 0.0105079552,31.0907044 0.00501373512,28.4698891 L0.00501373512,6.31868963 C-0.0749593237,4.57155915 0.806676448,2.92161291 2.29984188,2.02401013 C3.79300732,1.12640735 5.65606302,1.12640735 7.14922846,2.02401013 C8.64239389,2.92161291 9.52402966,4.57155915 9.4440566,6.31868963 L9.4440566,28.4698891 C9.43856238,31.0907044 7.32653973,33.2139203 4.71954097,33.2194437 L4.72952937,33.2194437 Z M48.7883845,53.9748966 C46.1774926,53.9638276 44.0683258,51.8300059 44.0738573,49.2052594 L44.0738573,27.114308 C43.9938842,25.3671775 44.87552,23.7172313 46.3686854,22.8196285 C47.8618509,21.9220257 49.7249066,21.9220257 51.218072,22.8196285 C52.7112374,23.7172313 53.5928732,25.3671775 53.5129001,27.114308 L53.5129001,49.2052594 C53.5074059,51.8260747 51.3953833,53.9492906 48.7883845,53.954814 L48.7883845,53.9748966 Z M34.1054289,33.2194437 C31.4984302,33.2139203 29.3864075,31.0907044 29.3809133,28.4698891 L29.3809133,15.8077574 C29.4969746,13.2722255 31.5756008,11.2765299 34.1004347,11.2765299 C36.6252686,11.2765299 38.7038949,13.2722255 38.8199562,15.8077574 L38.8199562,28.4698891 C38.8144619,31.0907044 36.7024393,33.2139203 34.0954405,33.2194437 L34.1054289,33.2194437 Z M24.1370006,6.31868963 C24.1370006,8.94179618 22.0217629,11.0682442 19.4124849,11.0682442 C16.803207,11.0682442 14.6879693,8.94179618 14.6879693,6.31868963 C14.6879693,3.69558309 16.803207,1.56913508 19.4124849,1.56913508 C22.0217629,1.56913508 24.1370006,3.69558309 24.1370006,6.31868963 Z M68.2058441,27.114308 C68.2058441,29.7374145 66.0906064,31.8638625 63.4813285,31.8638625 C60.8720505,31.8638625 58.7568128,29.7374145 58.7568128,27.114308 C58.7568128,24.4912014 60.8720505,22.3647534 63.4813285,22.3647534 C64.7343479,22.3647534 65.936047,22.8651515 66.8220655,23.7558658 C67.7080841,24.64658 68.2058441,25.8546478 68.2058441,27.114308 Z M82.9087765,6.31868963 C82.9087532,8.93917677 80.7975614,11.0645192 78.1908917,11.0681971 C75.5842219,11.0718749 73.4671041,8.95249825 73.459764,6.3320215 C73.4524238,3.71154475 75.557635,1.58021536 78.1642841,1.56913508 C79.4207612,1.56379408 80.6275987,2.0618333 81.5179425,2.95312711 C82.4082864,3.84442092 82.9087877,5.05554217 82.9087765,6.31868963 Z M110.496752,1.22772947 C110.496752,1.15008995 110.559359,1.08715068 110.636589,1.08715068 L111.325789,1.08715068 C111.400914,1.09203808 111.460765,1.15220691 111.465627,1.22772947 L111.465627,5.43505158 L113.373412,5.43505158 C113.450642,5.43505158 113.51325,5.49799084 113.51325,5.57563036 L113.51325,6.18815219 C113.51325,6.26579171 113.450642,6.32873098 113.373412,6.32873098 L110.636589,6.32873098 C110.559359,6.32873098 110.496752,6.26579171 110.496752,6.18815219 L110.496752,1.22772947 Z M115.011511,1.22772947 C115.016372,1.15220691 115.076224,1.09203808 115.151348,1.08715068 L115.850537,1.08715068 C115.925661,1.09203808 115.985513,1.15220691 115.990374,1.22772947 L115.990374,6.19819354 C115.985513,6.27371609 115.925661,6.33388493 115.850537,6.33877232 L115.151348,6.33877232 C115.076224,6.33388493 115.016372,6.27371609 115.011511,6.19819354 L115.011511,1.22772947 Z M118.097928,1.22772947 C118.097928,1.15008995 118.160535,1.08715068 118.237766,1.08715068 L118.926965,1.08715068 C119.00209,1.09203808 119.061942,1.15220691 119.066803,1.22772947 L119.066803,5.43505158 L120.974589,5.43505158 C121.051819,5.43505158 121.114426,5.49799084 121.114426,5.57563036 L121.114426,6.18815219 C121.114426,6.26579171 121.051819,6.32873098 120.974589,6.32873098 L118.237766,6.32873098 C118.160535,6.32873098 118.097928,6.26579171 118.097928,6.18815219 L118.097928,1.22772947 Z M122.612687,1.22772947 C122.612687,1.15008995 122.675294,1.08715068 122.752525,1.08715068 L123.441725,1.08715068 C123.516849,1.09203808 123.576701,1.15220691 123.581562,1.22772947 L123.581562,5.43505158 L125.489348,5.43505158 C125.566578,5.43505158 125.629185,5.49799084 125.629185,5.57563036 L125.629185,6.18815219 C125.629185,6.26579171 125.566578,6.32873098 125.489348,6.32873098 L122.752525,6.32873098 C122.675294,6.32873098 122.612687,6.26579171 122.612687,6.18815219 L122.612687,1.22772947 Z M127.127446,1.22772947 C127.127446,1.15008995 127.190054,1.08715068 127.267284,1.08715068 L130.263805,1.08715068 C130.341036,1.08715068 130.403643,1.15008995 130.403643,1.22772947 L130.403643,1.8402513 C130.403643,1.91789082 130.341036,1.98083008 130.263805,1.98083008 L128.056368,1.98083008 L128.056368,3.21591509 L129.904223,3.21591509 C129.979347,3.22080249 130.039199,3.28097132 130.04406,3.35649388 L130.04406,4.01922242 C130.04406,4.09686194 129.981453,4.1598012 129.904223,4.1598012 L128.056368,4.1598012 L128.056368,5.43505158 L130.263805,5.43505158 C130.341036,5.43505158 130.403643,5.49799084 130.403643,5.57563036 L130.403643,6.18815219 C130.403643,6.26579171 130.341036,6.32873098 130.263805,6.32873098 L127.267284,6.32873098 C127.190054,6.32873098 127.127446,6.26579171 127.127446,6.18815219 L127.127446,1.22772947 Z M132.261486,1.22772947 C132.266348,1.15220691 132.3262,1.09203808 132.401324,1.08715068 L133.100512,1.08715068 C133.177743,1.08715068 133.24035,1.15008995 133.24035,1.22772947 L133.24035,3.23599778 L135.677521,3.23599778 L135.677521,1.22772947 C135.673233,1.18287865 135.69059,1.13867929 135.724197,1.10886827 C135.757805,1.07905724 135.803591,1.06724746 135.847324,1.07710934 L136.536524,1.07710934 C136.611648,1.08199673 136.6715,1.14216557 136.676361,1.21768812 L136.676361,6.19819354 C136.6715,6.27371609 136.611648,6.33388493 136.536524,6.33877232 L135.847324,6.33877232 C135.770094,6.33877232 135.707486,6.27583305 135.707486,6.19819354 L135.707486,4.11963583 L133.270315,4.11963583 L133.270315,6.19819354 C133.270315,6.27583305 133.207708,6.33877232 133.130478,6.33877232 L132.431289,6.33877232 C132.356165,6.33388493 132.296313,6.27371609 132.291452,6.19819354 L132.261486,1.22772947 Z M138.06475,6.13794549 L140.392048,1.11727471 C140.413491,1.06508166 140.465887,1.03266744 140.521897,1.03694398 L140.601805,1.03694398 C140.657815,1.03266744 140.710211,1.06508166 140.731654,1.11727471 L143.028987,6.13794549 C143.051591,6.1808148 143.048678,6.23275053 143.021425,6.27279408 C142.994171,6.31283762 142.947073,6.33438122 142.899138,6.32873098 L142.249892,6.32873098 C142.150296,6.33759154 142.058324,6.2745512 142.030147,6.17811085 L141.660576,5.36476219 L139.423173,5.36476219 L139.053602,6.17811085 C139.022323,6.27223864 138.932444,6.33384443 138.833857,6.32873098 L138.184611,6.32873098 C138.138409,6.33041811 138.094799,6.30728191 138.070111,6.26798565 C138.045423,6.22868938 138.043381,6.17916072 138.06475,6.13794549 Z M141.291005,4.54137218 L140.541874,2.89459216 L139.812721,4.54137218 L141.291005,4.54137218 Z M144.986715,1.11727471 C144.989256,1.08527398 145.004395,1.05561569 145.028772,1.03487929 C145.053149,1.01414289 145.08475,1.00404291 145.116564,1.00681995 L145.236425,1.00681995 C145.289479,1.00353591 145.339797,1.03077418 145.366274,1.07710934 L147.004372,4.62170291 L148.672436,1.07710934 C148.699791,1.01583999 148.768925,0.985433608 148.832251,1.00681995 L148.952111,1.00681995 C149.016697,1.00604763 149.072028,1.05311459 149.081961,1.11727471 L149.96094,6.13794549 C149.974125,6.17875705 149.966516,6.22347617 149.940588,6.25756201 C149.914659,6.29164785 149.873724,6.31074667 149.831091,6.30864829 L149.151879,6.30864829 C149.087312,6.30370998 149.032091,6.26009166 149.012042,6.19819354 L148.572552,3.35649388 L147.214129,6.32873098 C147.192686,6.38092403 147.14029,6.41333825 147.08428,6.40906171 L146.95443,6.40906171 C146.90201,6.40906171 146.854731,6.37737535 146.834569,6.32873098 L145.5161,3.37657656 L145.086599,6.21827622 C145.073126,6.28036812 145.019892,6.32565147 144.956749,6.32873098 L144.287526,6.32873098 C144.244611,6.32973598 144.203614,6.31086968 144.176325,6.27755727 C144.149036,6.24424486 144.138478,6.20017785 144.147688,6.15802817 L144.986715,1.11727471 Z M152.248285,1.11727471 C152.250826,1.08527398 152.265965,1.05561569 152.290343,1.03487929 C152.31472,1.01414289 152.346321,1.00404291 152.378134,1.00681995 L152.497995,1.00681995 C152.551049,1.00353591 152.601368,1.03077418 152.627844,1.07710934 L154.265943,4.62170291 L155.943995,1.07710934 C155.968559,1.02884559 156.020241,1.00086925 156.073844,1.00681995 L156.193705,1.00681995 C156.258291,1.00604763 156.313622,1.05311459 156.323554,1.11727471 L157.202534,6.13794549 C157.215719,6.17875705 157.20811,6.22347617 157.182181,6.25756201 C157.156253,6.29164785 157.115317,6.31074667 157.072685,6.30864829 L156.393473,6.30864829 C156.328906,6.30370998 156.273684,6.26009166 156.253636,6.19819354 L155.824134,3.37657656 L154.475699,6.32873098 C154.454256,6.38092403 154.401861,6.41333825 154.34585,6.40906171 L154.216001,6.40906171 C154.15999,6.41333825 154.107595,6.38092403 154.086152,6.32873098 L152.767682,3.37657656 L152.338181,6.21827622 C152.324709,6.28036812 152.271474,6.32565147 152.208331,6.32873098 L151.539108,6.32873098 C151.496193,6.32973598 151.455196,6.31086968 151.427907,6.27755727 C151.400618,6.24424486 151.39006,6.20017785 151.399271,6.15802817 L152.248285,1.11727471 Z M158.970482,1.22772947 C158.970482,1.15008995 159.033089,1.08715068 159.110319,1.08715068 L162.106841,1.08715068 C162.184071,1.08715068 162.246679,1.15008995 162.246679,1.22772947 L162.246679,1.8402513 C162.246679,1.91789082 162.184071,1.98083008 162.106841,1.98083008 L159.899403,1.98083008 L159.899403,3.21591509 L161.817177,3.21591509 C161.892302,3.22080249 161.952153,3.28097132 161.957015,3.35649388 L161.957015,4.01922242 C161.957015,4.09686194 161.894407,4.1598012 161.817177,4.1598012 L159.969322,4.1598012 L159.969322,5.43505158 L162.17676,5.43505158 C162.25399,5.43505158 162.316597,5.49799084 162.316597,5.57563036 L162.316597,6.18815219 C162.316597,6.26579171 162.25399,6.32873098 162.17676,6.32873098 L159.180238,6.32873098 C159.103008,6.32873098 159.040401,6.26579171 159.040401,6.18815219 L158.970482,1.22772947 Z M164.094534,1.22772947 C164.094534,1.15008995 164.157141,1.08715068 164.234371,1.08715068 L166.37189,1.08715068 C166.801045,1.08447932 167.213678,1.25330629 167.519009,1.55648987 C167.824341,1.85967345 167.997359,2.27237715 168,2.70380667 C167.97951,3.39164498 167.538216,3.99514598 166.891287,4.22004925 L167.890128,6.12790414 C167.921972,6.17312875 167.92442,6.2329392 167.896381,6.28064172 C167.868342,6.32834425 167.815045,6.35503967 167.760278,6.34881366 L166.971194,6.34881366 C166.921093,6.35060919 166.87444,6.32325037 166.851333,6.27852427 L165.852493,4.27025596 L165.023455,4.27025596 L165.023455,6.19819354 C165.018594,6.27371609 164.958742,6.33388493 164.883618,6.33877232 L164.194418,6.33877232 C164.117187,6.33877232 164.05458,6.27583305 164.05458,6.19819354 L164.094534,1.22772947 Z M166.291983,3.47698997 C166.703411,3.46610179 167.031267,3.12759986 167.031125,2.71384802 C167.025661,2.30739445 166.69633,1.98079297 166.291983,1.98083008 L165.073397,1.98083008 L165.073397,3.47698997 L166.291983,3.47698997 Z M110.496752,13.1166779 C110.501613,13.0411553 110.561465,12.9809865 110.636589,12.9760991 L111.335778,12.9760991 C111.410902,12.9809865 111.470754,13.0411553 111.475615,13.1166779 L111.475615,18.0771006 C111.470754,18.1526231 111.410902,18.212792 111.335778,18.2176794 L110.636589,18.2176794 C110.561465,18.212792 110.501613,18.1526231 110.496752,18.0771006 L110.496752,13.1166779 Z M113.583169,13.0564298 C113.588418,12.9827369 113.649514,12.9257037 113.723006,12.9258924 L113.872832,12.9258924 L116.979226,16.2395351 L116.979226,13.1166779 C116.979226,13.0390383 117.041834,12.9760991 117.119064,12.9760991 L117.868195,12.9760991 C117.943319,12.9809865 118.003171,13.0411553 118.008032,13.1166779 L118.008032,18.1373486 C118.002783,18.2110416 117.941686,18.2680748 117.868195,18.2678861 L117.688403,18.2678861 L114.572021,14.8237059 L114.572021,18.0771006 C114.572021,18.1547401 114.509413,18.2176794 114.432183,18.2176794 L113.752972,18.2176794 C113.677847,18.212792 113.617996,18.1526231 113.613134,18.0771006 L113.583169,13.0564298 Z M119.785968,17.4947028 L120.055655,17.0328011 C120.080098,16.9904322 120.121467,16.9606594 120.169241,16.9510539 C120.217016,16.9414483 120.266593,16.9529356 120.305365,16.9825944 C120.637256,17.2290196 121.025324,17.3878313 121.434055,17.4444961 C121.601671,17.4611842 121.768817,17.408516 121.896969,17.298631 C122.02512,17.1887459 122.10322,17.0311251 122.113267,16.8620983 C122.113267,16.4805273 121.793638,16.2194524 121.114426,15.9583775 C120.435215,15.6973026 119.706061,15.2253596 119.706061,14.3316802 C119.716742,13.9082829 119.905425,13.5092736 120.2253,13.2336417 C120.545176,12.9580098 120.966269,12.8315833 121.384113,12.885727 C121.922937,12.8946288 122.446002,13.0699077 122.882374,13.3877941 C122.944847,13.4596876 122.944847,13.5669341 122.882374,13.6388276 L122.602699,14.0706053 C122.553768,14.1653119 122.439701,14.2050058 122.343,14.1609774 C122.044689,13.9507094 121.70344,13.8100557 121.34416,13.7492824 C121.01963,13.7137879 120.726536,13.9459344 120.684925,14.2714321 C120.684925,14.6228791 120.9646,14.8638713 121.563904,15.1149048 C122.163209,15.3659384 123.122096,15.8479228 123.122096,16.8118916 C123.096811,17.2405098 122.899795,17.6405231 122.576043,17.9205771 C122.252291,18.200631 121.82945,18.3368087 121.40409,18.2980101 C120.804975,18.315664 120.220859,18.1079914 119.765992,17.7156123 C119.756003,17.6453229 119.726038,17.6051575 119.785968,17.4947028 Z M125.589232,13.8697785 L124.450554,13.8697785 C124.413466,13.8697785 124.377898,13.8549675 124.351673,13.8286039 C124.325449,13.8022403 124.310716,13.7664835 124.310716,13.7291997 L124.310716,13.1166779 C124.310716,13.0793941 124.325449,13.0436373 124.351673,13.0172737 C124.377898,12.99091 124.413466,12.9760991 124.450554,12.9760991 L127.716762,12.9760991 C127.793992,12.9760991 127.8566,13.0390383 127.8566,13.1166779 L127.8566,13.7291997 C127.8566,13.8068392 127.793992,13.8697785 127.716762,13.8697785 L126.578084,13.8697785 L126.578084,18.0771006 C126.573222,18.1526231 126.513371,18.212792 126.438246,18.2176794 L125.739058,18.2176794 C125.663933,18.212792 125.604082,18.1526231 125.59922,18.0771006 L125.589232,13.8697785 Z M129.374837,13.1166779 C129.379699,13.0411553 129.439551,12.9809865 129.514675,12.9760991 L130.213863,12.9760991 C130.288988,12.9809865 130.348839,13.0411553 130.353701,13.1166779 L130.353701,18.0771006 C130.348839,18.1526231 130.288988,18.212792 130.213863,18.2176794 L129.514675,18.2176794 C129.439551,18.212792 129.379699,18.1526231 129.374837,18.0771006 L129.374837,13.1166779 Z M133.160443,13.8697785 L132.021765,13.8697785 C131.944534,13.8697785 131.881927,13.8068392 131.881927,13.7291997 L131.881927,13.1166779 C131.881927,13.0390383 131.944534,12.9760991 132.021765,12.9760991 L135.287973,12.9760991 C135.365203,12.9760991 135.427811,13.0390383 135.427811,13.1166779 L135.427811,13.7291997 C135.427811,13.8068392 135.365203,13.8697785 135.287973,13.8697785 L134.149295,13.8697785 L134.149295,18.0771006 C134.144433,18.1526231 134.084582,18.212792 134.009457,18.2176794 L133.310269,18.2176794 C133.235144,18.212792 133.175293,18.1526231 133.170431,18.0771006 L133.160443,13.8697785 Z M136.846164,13.1166779 C136.851026,13.0411553 136.910878,12.9809865 136.986002,12.9760991 L137.695179,12.9760991 C137.772409,12.9760991 137.835016,13.0390383 137.835016,13.1166779 L137.835016,16.1893284 C137.835016,16.7938075 138.32246,17.2838346 138.923753,17.2838346 C139.525045,17.2838346 140.012489,16.7938075 140.012489,16.1893284 L140.012489,13.1166779 C140.012489,13.0390383 140.075096,12.9760991 140.152326,12.9760991 L140.841526,12.9760991 C140.916651,12.9809865 140.976502,13.0411553 140.981364,13.1166779 L140.981364,16.2395351 C140.981364,17.3958093 140.04896,18.3331548 138.898782,18.3331548 C137.748603,18.3331548 136.816199,17.3958093 136.816199,16.2395351 L136.846164,13.1166779 Z M143.758141,13.8697785 L142.619463,13.8697785 C142.542232,13.8697785 142.479625,13.8068392 142.479625,13.7291997 L142.479625,13.1166779 C142.479625,13.0390383 142.542232,12.9760991 142.619463,12.9760991 L145.835729,12.9760991 C145.912959,12.9760991 145.975567,13.0390383 145.975567,13.1166779 L145.975567,13.7291997 C145.975567,13.8068392 145.912959,13.8697785 145.835729,13.8697785 L144.737004,13.8697785 L144.737004,18.0771006 C144.732143,18.1526231 144.672291,18.212792 144.597167,18.2176794 L143.897978,18.2176794 C143.822854,18.212792 143.763002,18.1526231 143.758141,18.0771006 L143.758141,13.8697785 Z M147.543746,13.1166779 C147.543746,13.0390383 147.606354,12.9760991 147.683584,12.9760991 L150.680105,12.9760991 C150.757336,12.9760991 150.819943,13.0390383 150.819943,13.1166779 L150.819943,13.7291997 C150.819943,13.8068392 150.757336,13.8697785 150.680105,13.8697785 L148.472668,13.8697785 L148.472668,15.0646981 L150.320523,15.0646981 C150.395647,15.0695855 150.455499,15.1297544 150.460361,15.2052769 L150.460361,15.8278401 C150.460361,15.9054796 150.397753,15.9684189 150.320523,15.9684189 L148.472668,15.9684189 L148.472668,17.2838346 L150.680105,17.2838346 C150.717193,17.2838346 150.752761,17.2986455 150.778986,17.3250092 C150.80521,17.3513728 150.819943,17.3871296 150.819943,17.4244134 L150.819943,18.0771006 C150.819943,18.1547401 150.757336,18.2176794 150.680105,18.2176794 L147.683584,18.2176794 C147.606354,18.2176794 147.543746,18.1547401 147.543746,18.0771006 L147.543746,13.1166779 Z M157.382325,12.8957684 C158.866234,12.890233 160.073645,14.0950629 160.079158,15.5868356 C160.084671,17.0786083 158.886198,18.2924238 157.40229,18.2979728 C155.918381,18.3035219 154.710959,17.0987032 154.705433,15.6069306 C154.702779,14.8905473 154.983318,14.2024458 155.485334,13.6940032 C155.987349,13.1855606 156.669719,12.8984265 157.382325,12.8957684 Z M157.382325,17.324 C158.078995,17.3280601 158.70913,16.9087586 158.977603,16.2624773 C159.246076,15.6161959 159.099727,14.8709056 158.607098,14.3756665 C158.11447,13.8804275 157.373109,13.7333026 156.730235,14.0031985 C156.08736,14.2730943 155.670269,14.9065686 155.674308,15.6069306 C155.679763,16.5529608 156.441282,17.3185156 157.382325,17.324 Z M161.817177,13.1166779 C161.817177,13.0390383 161.879785,12.9760991 161.957015,12.9760991 L164.953536,12.9760991 C165.030767,12.9760991 165.093374,13.0390383 165.093374,13.1166779 L165.093374,13.7291997 C165.093374,13.8068392 165.030767,13.8697785 164.953536,13.8697785 L162.746099,13.8697785 L162.746099,15.2856076 L164.593954,15.2856076 C164.669078,15.290495 164.72893,15.3506639 164.733792,15.4261864 L164.733792,16.0688323 C164.72893,16.1443548 164.669078,16.2045237 164.593954,16.2094111 L162.746099,16.2094111 L162.746099,18.0771006 C162.741237,18.1526231 162.681386,18.212792 162.606261,18.2176794 L161.917061,18.2176794 C161.855674,18.1993405 161.814524,18.1414247 161.817177,18.0771006 L161.817177,13.1166779 Z M111.036125,24.8951715 C111.038667,24.8631708 111.053805,24.8335125 111.078183,24.8127761 C111.10256,24.7920397 111.134161,24.7819397 111.165975,24.7847168 L111.285836,24.7847168 C111.338889,24.7814327 111.389208,24.808671 111.415685,24.8550061 L113.053783,28.3995997 L114.70187,24.8550061 C114.726434,24.8067424 114.778117,24.778766 114.831719,24.7847168 L114.95158,24.7847168 C115.016166,24.7839444 115.071497,24.8310114 115.08143,24.8951715 L115.960409,29.9158423 C115.989906,29.9533996 115.996597,30.0041712 115.977846,30.0481545 C115.959096,30.0921378 115.917909,30.1222817 115.870514,30.1267105 L115.191302,30.1267105 C115.126735,30.1217721 115.071513,30.0781538 115.051464,30.0162557 L114.591998,27.114308 L113.26354,30.1267105 C113.242097,30.1789035 113.189701,30.2113177 113.13369,30.2070412 L113.003841,30.2070412 C112.947831,30.2113177 112.895435,30.1789035 112.873992,30.1267105 L111.555522,27.114308 L111.126021,29.9560077 C111.112549,30.0180996 111.059314,30.0633829 110.996172,30.0664624 L110.326949,30.0664624 C110.284033,30.0674674 110.243036,30.0486011 110.215747,30.0152887 C110.188458,29.9819763 110.177901,29.9379093 110.187111,29.8957596 L111.036125,24.8951715 Z M117.688403,25.0056263 C117.693265,24.9301037 117.753117,24.8699349 117.828241,24.8650475 L118.537418,24.8650475 C118.614648,24.8650475 118.677255,24.9279867 118.677255,25.0056263 L118.677255,28.1184421 C118.677255,28.7256941 119.166935,29.217969 119.770986,29.217969 C120.375036,29.217969 120.864716,28.7256941 120.864716,28.1184421 L120.864716,25.0056263 C120.864716,24.9279867 120.927324,24.8650475 121.004554,24.8650475 L121.713731,24.8650475 C121.788855,24.8699349 121.848707,24.9301037 121.853568,25.0056263 L121.853568,28.1184421 C121.853568,29.2747164 120.921164,30.2120619 119.770986,30.2120619 C118.620807,30.2120619 117.688403,29.2747164 117.688403,28.1184421 L117.688403,25.0056263 Z M123.571574,29.3736098 L123.841261,28.9117081 C123.865704,28.8693392 123.907072,28.8395665 123.954847,28.8299609 C124.002621,28.8203554 124.052198,28.8318426 124.090971,28.8615014 C124.422862,29.1079266 124.81093,29.2667384 125.219661,29.3234031 C125.387276,29.3400912 125.554423,29.2874231 125.682574,29.177538 C125.810726,29.067653 125.888825,28.9100322 125.898872,28.7410053 C125.898872,28.3594343 125.579243,28.0983595 124.900032,27.8372846 C124.22082,27.5762097 123.491667,27.1042666 123.491667,26.2105873 C123.502347,25.78719 123.691031,25.3881806 124.010906,25.1125487 C124.330781,24.8369169 124.751875,24.7104903 125.169719,24.7646341 C125.708543,24.7735359 126.231607,24.9488148 126.667979,25.2667011 C126.730452,25.3385947 126.730452,25.4458412 126.667979,25.5177347 L126.388304,25.9495124 C126.339373,26.0442189 126.225307,26.0839128 126.128606,26.0398844 C125.830295,25.8296164 125.489046,25.6889628 125.129765,25.6281894 C124.805235,25.592695 124.512141,25.8248415 124.47053,26.1503392 C124.47053,26.5017862 124.750206,26.7427784 125.34951,26.9938119 C125.948814,27.2448454 126.907701,27.7268298 126.907701,28.6907986 C126.882416,29.1194169 126.685401,29.5194302 126.361648,29.7994841 C126.037896,30.0795381 125.615056,30.2157158 125.189696,30.1769172 C124.590581,30.194571 124.006465,29.9868985 123.551597,29.5945194 C123.541609,29.5342713 123.501655,29.4941059 123.571574,29.3736098 Z M128.665661,25.0056263 C128.670522,24.9301037 128.730374,24.8699349 128.805498,24.8650475 L129.504687,24.8650475 C129.579811,24.8699349 129.639663,24.9301037 129.644524,25.0056263 L129.644524,29.9760903 C129.639663,30.0516129 129.579811,30.1117817 129.504687,30.1166691 L128.85544,30.1166691 C128.780316,30.1117817 128.720464,30.0516129 128.715603,29.9760903 L128.665661,25.0056263 Z M134.069388,24.7847168 C134.741003,24.7681121 135.391552,25.0210391 135.877289,25.4876107 C135.907389,25.5142972 135.924633,25.5526986 135.924633,25.5930447 C135.924633,25.6333909 135.907389,25.6717923 135.877289,25.6984788 L135.417822,26.1704219 C135.395127,26.1999858 135.36008,26.2173005 135.322933,26.2173005 C135.285786,26.2173005 135.250738,26.1999858 135.228043,26.1704219 C134.91009,25.8896963 134.502523,25.7329311 134.079376,25.7286029 C133.173198,25.7978134 132.473055,26.5571694 132.473055,27.4707756 C132.473055,28.3843819 133.173198,29.1437378 134.079376,29.2129484 C134.497482,29.207308 134.900396,29.054526 135.218054,28.7811707 C135.271632,28.7314123 135.354256,28.7314123 135.407834,28.7811707 L135.867301,29.2631551 C135.894145,29.2895964 135.909272,29.3257873 135.909272,29.3635685 C135.909272,29.4013497 135.894145,29.4375406 135.867301,29.4639819 C135.381524,29.9402563 134.727928,30.2038023 134.049411,30.1969998 C132.565487,30.1969998 131.36253,28.9876668 131.36253,27.495879 C131.36253,26.0040911 132.565487,24.7947581 134.049411,24.7947581 L134.069388,24.7847168 Z M110.496752,36.8945747 C110.496752,36.8169351 110.559359,36.7539959 110.636589,36.7539959 L112.394549,36.7539959 C113.019473,36.705272 113.618819,37.0128485 113.946119,37.5502418 C114.273419,38.0876351 114.273419,38.7641234 113.946119,39.3015167 C113.618819,39.83891 113.019473,40.1464865 112.394549,40.0977626 L111.465627,40.0977626 L111.465627,41.8650387 C111.460765,41.9405613 111.400914,42.0007301 111.325789,42.0056175 L110.636589,42.0056175 C110.559359,42.0056175 110.496752,41.9426783 110.496752,41.8650387 L110.496752,36.8945747 Z M112.334618,39.1639179 C112.54034,39.1639353 112.737495,39.0810982 112.882021,38.9339192 C113.026547,38.7867401 113.106397,38.5874884 113.103725,38.3806932 C113.098497,38.1809349 113.014512,37.9914547 112.87026,37.8539722 C112.726009,37.7164897 112.53332,37.6422774 112.334618,37.6476753 L111.465627,37.6476753 L111.465627,39.1639179 L112.334618,39.1639179 Z M115.650769,36.8945747 C115.650769,36.8169351 115.713376,36.7539959 115.790606,36.7539959 L117.928125,36.7539959 C118.35728,36.7513245 118.769913,36.9201515 119.075244,37.2233351 C119.380576,37.5265186 119.553594,37.9392223 119.556235,38.3706519 C119.535745,39.0584902 119.094451,39.6619912 118.447522,39.8868944 L119.446363,41.7947493 C119.478207,41.839974 119.480655,41.8997844 119.452616,41.9474869 C119.424577,41.9951894 119.37128,42.0218849 119.316513,42.0156589 L118.527429,42.0156589 C118.477328,42.0174544 118.430675,41.9900956 118.407568,41.9453695 L117.408728,39.9371012 L116.57969,39.9371012 L116.57969,41.8549974 C116.574829,41.9305199 116.514977,41.9906888 116.439853,41.9955762 L115.750653,41.9955762 C115.673422,41.9955762 115.610815,41.9326369 115.610815,41.8549974 L115.650769,36.8945747 Z M117.868195,39.1639179 C118.279623,39.1530297 118.607479,38.8145277 118.607337,38.4007759 C118.601872,37.9943223 118.272542,37.6677208 117.868195,37.667758 L116.649609,37.667758 L116.649609,39.1639179 L117.868195,39.1639179 Z M123.681446,36.6736651 C125.165355,36.6681298 126.372766,37.8729597 126.378279,39.3647324 C126.383792,40.8565051 125.185319,42.0703206 123.701411,42.0758696 C122.217502,42.0814187 121.01008,40.8766 121.004554,39.3848274 C121.0019,38.6684441 121.282439,37.9803426 121.784455,37.4719 C122.28647,36.9634574 122.96884,36.6763233 123.681446,36.6736651 Z M123.681446,41.1018968 C124.378116,41.1059569 125.008251,40.6866554 125.276724,40.040374 C125.545197,39.3940927 125.398848,38.6488024 124.906219,38.1535633 C124.413591,37.6583243 123.67223,37.5111994 123.029356,37.7810953 C122.386481,38.0509911 121.96939,38.6844654 121.973429,39.3848274 C121.978885,40.3308576 122.740403,41.0964124 123.681446,41.1018968 Z M128.096321,36.8945747 C128.096134,36.8206933 128.152866,36.7592729 128.226171,36.7539959 L129.994118,36.7539959 C130.965833,36.6935585 131.890597,37.1803981 132.394644,38.0177465 C132.898692,38.8550948 132.898692,39.9045186 132.394644,40.7418669 C131.890597,41.5792153 130.965833,42.0660549 129.994118,42.0056175 L128.226171,42.0056175 C128.152866,42.0003405 128.096134,41.9389201 128.096321,41.8650387 L128.096321,36.8945747 Z M129.914211,41.0918554 C130.857523,41.0918554 131.622228,40.3230973 131.622228,39.374786 C131.622228,38.4264748 130.857523,37.6577166 129.914211,37.6577166 L129.065197,37.6577166 L129.065197,41.0918554 L129.914211,41.0918554 Z M134.269156,36.8945747 C134.274017,36.8190521 134.333869,36.7588833 134.408993,36.7539959 L135.11817,36.7539959 C135.1954,36.7539959 135.258008,36.8169351 135.258008,36.8945747 L135.258008,39.9672252 C135.258008,40.5717043 135.745452,41.0617314 136.346744,41.0617314 C136.948036,41.0617314 137.43548,40.5717043 137.43548,39.9672252 L137.43548,36.8945747 C137.43548,36.8169351 137.498088,36.7539959 137.575318,36.7539959 L138.284495,36.7539959 C138.359619,36.7588833 138.419471,36.8190521 138.424332,36.8945747 L138.424332,40.0174319 C138.424332,41.1737061 137.491928,42.1110516 136.34175,42.1110516 C135.191571,42.1110516 134.259167,41.1737061 134.259167,40.0174319 L134.269156,36.8945747 Z M142.779277,36.6736651 C143.450892,36.6570605 144.101442,36.9099875 144.587178,37.3765591 C144.617278,37.4032456 144.634522,37.441647 144.634522,37.4819931 C144.634522,37.5223393 144.617278,37.5607407 144.587178,37.5874272 L144.127712,38.0593703 C144.105017,38.0889342 144.069969,38.1062489 144.032822,38.1062489 C143.995675,38.1062489 143.960627,38.0889342 143.937932,38.0593703 C143.61998,37.7786447 143.212412,37.6218795 142.789265,37.6175513 C141.883087,37.6867618 141.182944,38.4461178 141.182944,39.359724 C141.182944,40.2733302 141.883087,41.0326862 142.789265,41.1018968 C143.207371,41.0962564 143.610286,40.9434744 143.927944,40.6701191 C143.981522,40.6203607 144.064145,40.6203607 144.117723,40.6701191 L144.57719,41.1521035 C144.604034,41.1785448 144.619162,41.2147357 144.619162,41.2525169 C144.619162,41.2902981 144.604034,41.326489 144.57719,41.3529303 C144.091413,41.8292047 143.437817,42.0927507 142.7593,42.0859482 C141.79937,42.0859483 140.912358,41.5711176 140.432393,40.7353878 C139.952428,39.8996581 139.952428,38.8699966 140.432393,38.0342669 C140.912358,37.1985372 141.79937,36.6837065 142.7593,36.6837065 L142.779277,36.6736651 Z M147.014361,37.6476753 L145.835729,37.6476753 C145.758499,37.6476753 145.695891,37.584736 145.695891,37.5070965 L145.695891,36.8945747 C145.695891,36.8169351 145.758499,36.7539959 145.835729,36.7539959 L149.101937,36.7539959 C149.179168,36.7539959 149.241775,36.8169351 149.241775,36.8945747 L149.241775,37.5070965 C149.241775,37.584736 149.179168,37.6476753 149.101937,37.6476753 L147.963259,37.6476753 L147.963259,41.8549974 C147.958398,41.9305199 147.898546,41.9906888 147.823422,41.9955762 L147.124233,41.9955762 C147.049109,41.9906888 146.989257,41.9305199 146.984396,41.8549974 L147.014361,37.6476753 Z M150.829932,36.8945747 C150.834793,36.8190521 150.894645,36.7588833 150.969769,36.7539959 L151.668958,36.7539959 C151.744082,36.7588833 151.803934,36.8190521 151.808795,36.8945747 L151.808795,41.8650387 C151.803934,41.9405613 151.744082,42.0007301 151.668958,42.0056175 L150.969769,42.0056175 C150.894645,42.0007301 150.834793,41.9405613 150.829932,41.8650387 L150.829932,36.8945747 Z M156.193705,36.6736651 C157.677613,36.6681298 158.885024,37.8729597 158.890537,39.3647324 C158.89605,40.8565051 157.697578,42.0703206 156.213669,42.0758696 C154.729761,42.0814187 153.522339,40.8766 153.516813,39.3848274 C153.514159,38.6684441 153.794698,37.9803426 154.296713,37.4719 C154.798729,36.9634574 155.481098,36.6763233 156.193705,36.6736651 Z M156.193705,41.1018968 C156.890375,41.1059569 157.52051,40.6866554 157.788983,40.040374 C158.057456,39.3940927 157.911106,38.6488024 157.418478,38.1535633 C156.92585,37.6583243 156.184489,37.5111994 155.541614,37.7810953 C154.89874,38.0509911 154.481649,38.6844654 154.485688,39.3848274 C154.491143,40.3308576 155.252662,41.0964124 156.193705,41.1018968 Z M160.60858,36.8042026 C160.613829,36.7305097 160.674926,36.6734765 160.748418,36.6736651 L160.938198,36.6736651 L164.044592,39.9873079 L164.044592,36.8945747 C164.044592,36.8169351 164.107199,36.7539959 164.184429,36.7539959 L164.873629,36.7539959 C164.948754,36.7588833 165.008605,36.8190521 165.013467,36.8945747 L165.013467,41.9152454 C165.008218,41.9889384 164.947121,42.0459716 164.873629,42.0457829 L164.693838,42.0457829 L161.577455,38.6016027 L161.577455,41.8248734 C161.577455,41.9025129 161.514848,41.9654521 161.437618,41.9654521 L160.758406,41.9654521 C160.683282,41.9605648 160.62343,41.9003959 160.618569,41.8248734 L160.60858,36.8042026 Z M111.395708,51.0428249 L111.235894,50.8721221 C110.923096,50.5978583 110.738436,50.2047402 110.726485,49.7876572 C110.828929,49.0822275 111.430695,48.5591787 112.139844,48.5591787 C112.848994,48.5591787 113.450759,49.0822275 113.553204,49.7876572 C113.553204,50.5608405 112.794085,51.0227422 112.644259,51.1532797 L113.503261,52.0268764 C113.629799,51.7624291 113.720503,51.4821223 113.772948,51.193445 C113.772948,51.0327836 113.842867,50.9524528 114.022659,51.0026595 L114.432183,51.1231556 C114.621963,51.1733624 114.572021,51.3440652 114.562032,51.4143546 C114.459537,51.8305216 114.30516,52.232006 114.102566,52.6092742 L114.771789,53.2418787 C114.861685,53.3322508 114.941592,53.4125815 114.771789,53.5832843 L114.462148,53.8945659 C114.420434,53.9421168 114.360407,53.9693575 114.29734,53.9693575 C114.234273,53.9693575 114.174246,53.9421168 114.132531,53.8945659 L113.593157,53.3422921 C113.165749,53.7790515 112.573873,54.0126762 111.965047,53.984938 C111.56651,54.0181722 111.171883,53.8854168 110.873511,53.617737 C110.57514,53.3500572 110.399206,52.9709432 110.386879,52.5691088 C110.418406,51.9125681 110.805846,51.3264003 111.395708,51.0428249 Z M112.034966,53.161548 C112.418275,53.1791619 112.787759,53.0157275 113.033806,52.719729 L111.875151,51.5348506 C111.509757,51.6998976 111.266849,52.0564994 111.245882,52.4586541 C111.253203,52.6605949 111.343126,52.8505398 111.494401,52.9836071 C111.645676,53.1166744 111.844884,53.1810591 112.044954,53.161548 L112.034966,53.161548 Z M112.744143,49.8278226 C112.736586,49.6668915 112.664158,49.515995 112.54355,49.4099031 C112.422941,49.3038111 112.264554,49.2516748 112.104885,49.2655075 C111.963003,49.2542852 111.822921,49.3032433 111.718562,49.4005253 C111.614203,49.4978074 111.555084,49.634542 111.555522,49.7776159 C111.555522,50.0386908 111.715337,50.2093936 111.94507,50.4503858 L112.104885,50.6210886 C112.224746,50.5507992 112.754131,50.2997656 112.754131,49.8278226 L112.744143,49.8278226 Z M118.777139,48.7835231 C118.782001,48.7080005 118.841853,48.6478317 118.916977,48.6429443 L119.616165,48.6429443 C119.69129,48.6478317 119.751141,48.7080005 119.756003,48.7835231 L119.756003,53.8041938 C119.751141,53.8797164 119.69129,53.9398852 119.616165,53.9447726 L118.867035,53.9447726 C118.791911,53.9398852 118.732059,53.8797164 118.727197,53.8041938 L118.777139,48.7835231 Z M121.863557,48.693151 C121.868806,48.6194581 121.929902,48.5624249 122.003394,48.5626135 L122.193174,48.5626135 L125.299568,51.8762563 L125.299568,48.7835231 C125.299568,48.7058835 125.362175,48.6429443 125.439406,48.6429443 L126.128606,48.6429443 C126.20373,48.6478317 126.263582,48.7080005 126.268443,48.7835231 L126.268443,53.8041938 C126.263194,53.8778868 126.202098,53.93492 126.128606,53.9347313 L125.948814,53.9347313 L122.862397,50.5206752 L122.862397,53.7539871 C122.862397,53.8316266 122.79979,53.8945659 122.722559,53.8945659 L122.043348,53.8945659 C121.968223,53.8896785 121.908372,53.8295097 121.90351,53.7539871 L121.863557,48.693151 Z M128.375997,48.7835231 C128.375809,48.7096417 128.432542,48.6482213 128.505846,48.6429443 L130.273794,48.6429443 C131.245508,48.5825069 132.170272,49.0693465 132.67432,49.9066949 C133.178367,50.7440432 133.178367,51.793467 132.67432,52.6308153 C132.170272,53.4681637 131.245508,53.9550033 130.273794,53.8945659 L128.505846,53.8945659 C128.432542,53.8892889 128.375809,53.8278685 128.375997,53.7539871 L128.375997,48.7835231 Z M130.193886,52.9808038 C131.137198,52.9808038 131.901904,52.2120457 131.901904,51.2637344 C131.901904,50.3154232 131.137198,49.546665 130.193886,49.546665 L129.344872,49.546665 L129.344872,52.9808038 L130.193886,52.9808038 Z M134.55882,48.7835231 C134.563681,48.7080005 134.623533,48.6478317 134.698657,48.6429443 L135.407834,48.6429443 C135.485064,48.6429443 135.547672,48.7058835 135.547672,48.7835231 L135.547672,51.8561736 C135.547672,52.4606527 136.035115,52.9506798 136.636408,52.9506798 C137.2377,52.9506798 137.725144,52.4606527 137.725144,51.8561736 L137.725144,48.7835231 C137.725144,48.7058835 137.787751,48.6429443 137.864982,48.6429443 L138.574158,48.6429443 C138.649283,48.6478317 138.709134,48.7080005 138.713996,48.7835231 L138.713996,51.9063803 C138.713996,53.0626545 137.781592,54 136.631414,54 C135.481235,54 134.548831,53.0626545 134.548831,51.9063803 L134.55882,48.7835231 Z M140.44199,53.1515066 L140.711677,52.6896049 C140.73612,52.647236 140.777489,52.6174633 140.825263,52.6078577 C140.873038,52.5982522 140.922615,52.6097394 140.961387,52.6393982 C141.293278,52.8858234 141.681346,53.0446352 142.090077,53.1012999 C142.257693,53.117988 142.424839,53.0653199 142.55299,52.9554348 C142.681142,52.8455498 142.759242,52.687929 142.769289,52.5189021 C142.769289,52.1373311 142.44966,51.8762563 141.770448,51.6151814 C141.091237,51.3541065 140.362083,50.8821634 140.362083,49.988484 C140.372764,49.5650868 140.561447,49.1660774 140.881322,48.8904455 C141.201197,48.6148137 141.622291,48.4883871 142.040135,48.5425309 C142.578959,48.5514327 143.102024,48.7267116 143.538396,49.0445979 C143.600869,49.1164915 143.600869,49.223738 143.538396,49.2956315 L143.25872,49.7274092 C143.20979,49.8221157 143.095723,49.8618096 142.999022,49.8177812 C142.700549,49.6078105 142.359369,49.4671853 142.000181,49.4060862 C141.675652,49.3705918 141.382558,49.6027383 141.340947,49.928236 C141.340947,50.279683 141.620622,50.5206752 142.219926,50.7717087 C142.819231,51.0227422 143.778118,51.5047266 143.778118,52.4686954 C143.752833,52.8973137 143.555817,53.297327 143.232065,53.5773809 C142.908312,53.8574349 142.485472,53.9936126 142.060112,53.954814 C141.460845,53.9734449 140.876388,53.765651 140.422013,53.3724162 C140.412025,53.3121681 140.372071,53.2720027 140.44199,53.1515066 Z M146.245254,49.5366237 L145.106575,49.5366237 C145.029345,49.5366237 144.966738,49.4736844 144.966738,49.3960449 L144.966738,48.7835231 C144.966738,48.7058835 145.029345,48.6429443 145.106575,48.6429443 L148.372784,48.6429443 C148.450014,48.6429443 148.512622,48.7058835 148.512622,48.7835231 L148.512622,49.3960449 C148.512622,49.4736844 148.450014,49.5366237 148.372784,49.5366237 L147.234106,49.5366237 L147.234106,53.7539871 C147.229244,53.8295097 147.169392,53.8896785 147.094268,53.8945659 L146.39508,53.8945659 C146.319955,53.8896785 146.260104,53.8295097 146.255242,53.7539871 L146.245254,49.5366237 Z M150.030859,48.7835231 C150.030859,48.7058835 150.093467,48.6429443 150.170697,48.6429443 L152.308216,48.6429443 C153.182857,48.636914 153.903951,49.3306987 153.936326,50.2093936 C153.932452,50.9120603 153.488097,51.5358451 152.827613,51.7658015 L153.826453,53.6736564 C153.858297,53.718881 153.860746,53.7786915 153.832707,53.826394 C153.804668,53.8740965 153.751371,53.9007919 153.696604,53.8945659 L152.90752,53.8945659 C152.857419,53.8963614 152.810765,53.8690026 152.787659,53.8242765 L151.788818,51.8160082 L150.959781,51.8160082 L150.959781,53.7339044 C150.954919,53.809427 150.895068,53.8695958 150.819943,53.8744832 L150.130743,53.8744832 C150.053513,53.8744832 149.990906,53.811544 149.990906,53.7339044 L150.030859,48.7835231 Z M152.228308,51.0327836 C152.639736,51.0218954 152.967593,50.6833935 152.96745,50.2696416 C152.961986,49.863188 152.632656,49.5365866 152.228308,49.5366237 L151.009723,49.5366237 L151.009723,51.0327836 L152.228308,51.0327836 Z M155.744227,48.7835231 C155.749089,48.7080005 155.80894,48.6478317 155.884065,48.6429443 L156.583253,48.6429443 C156.658377,48.6478317 156.718229,48.7080005 156.723091,48.7835231 L156.723091,53.8041938 C156.718229,53.8797164 156.658377,53.9398852 156.583253,53.9447726 L155.884065,53.9447726 C155.80894,53.9398852 155.749089,53.8797164 155.744227,53.8041938 L155.744227,48.7835231 Z M158.820656,48.7835231 C158.820656,48.7058835 158.883263,48.6429443 158.960493,48.6429443 L161.957015,48.6429443 C162.034245,48.6429443 162.096853,48.7058835 162.096853,48.7835231 L162.096853,49.3960449 C162.096853,49.4736844 162.034245,49.5366237 161.957015,49.5366237 L159.819496,49.5366237 L159.819496,50.7717087 L161.667351,50.7717087 C161.742476,50.7765961 161.802327,50.8367649 161.807189,50.9122875 L161.807189,51.5348506 C161.807189,51.6124902 161.744581,51.6754294 161.667351,51.6754294 L159.819496,51.6754294 L159.819496,52.9908452 L162.026934,52.9908452 C162.104164,52.9908452 162.166771,53.0537844 162.166771,53.131424 L162.166771,53.7439458 C162.166771,53.8215853 162.104164,53.8845246 162.026934,53.8845246 L159.030412,53.8845246 C158.953182,53.8845246 158.890575,53.8215853 158.890575,53.7439458 L158.820656,48.7835231 Z M163.655044,53.1515066 L163.924731,52.6896049 C163.949174,52.647236 163.990542,52.6174633 164.038317,52.6078577 C164.086091,52.5982522 164.135668,52.6097394 164.174441,52.6393982 C164.506332,52.8858234 164.894399,53.0446352 165.303131,53.1012999 C165.470746,53.117988 165.637892,53.0653199 165.766044,52.9554348 C165.894196,52.8455498 165.972295,52.687929 165.982342,52.5189021 C165.982342,52.1373311 165.662713,51.8762563 164.983502,51.6151814 C164.30429,51.3541065 163.575137,50.8821634 163.575137,49.988484 C163.585817,49.5650868 163.7745,49.1660774 164.094376,48.8904455 C164.414251,48.6148137 164.835345,48.4883871 165.253189,48.5425309 C165.792013,48.5514327 166.315077,48.7267116 166.751449,49.0445979 C166.813922,49.1164915 166.813922,49.223738 166.751449,49.2956315 L166.471774,49.7274092 C166.422843,49.8221157 166.308777,49.8618096 166.212075,49.8177812 C165.913603,49.6078105 165.572423,49.4671853 165.213235,49.4060862 C164.888705,49.3705918 164.595611,49.6027383 164.554,49.928236 C164.554,50.279683 164.833676,50.5206752 165.43298,50.7717087 C166.032284,51.0227422 166.991171,51.5047266 166.991171,52.4686954 C166.965886,52.8973137 166.768871,53.297327 166.445118,53.5773809 C166.121366,53.8574349 165.698526,53.9936126 165.273165,53.954814 C164.673899,53.9734449 164.089441,53.765651 163.635067,53.3724162 C163.625079,53.3121681 163.585125,53.2720027 163.655044,53.1515066 Z"/>
  </defs>
  <g fill="none" fill-rule="non-zero" transform="translate(0 -1)">
    <use fill="#fff" fill-rule="nonzero" xlink:href="#mask-a"/>
  </g>
</svg>
